inDegrees=no
num_controls=7
num_derivatives=13
num_iterations=76
num_multipliers=7
num_parameters=0
num_slacks=7
num_states=26
objective=0.338949
objective_accelerations=0.029763
objective_balance=0.001118
objective_effort=0.022013
objective_height=0.284597
objective_ligament=0.001459
solver_duration=820.578215
status=Solve_Succeeded
success=true
DataType=double
version=3
OpenSimVersion=4.5
endheader
time	/jointset/ground_pelvis/pelvis_tilt/value	/jointset/ground_pelvis/pelvis_tx/value	/jointset/ground_pelvis/pelvis_ty/value	/jointset/hip_r/hip_flexion_r/value	/jointset/hip_r/hip_adduction_r/value	/jointset/hip_r/hip_rotation_r/value	/jointset/back/lumbar_extension/value	/jointset/patellofemoral_r/patellar_flexion_r/value	/jointset/knee_r/knee_flexion_r/value	/jointset/knee_r/knee_adduction_r/value	/jointset/knee_r/knee_rotation_r/value	/jointset/ankle_r/ankle_angle_r/value	/jointset/subtalar_r/subtalar_angle_r/value	/jointset/ground_pelvis/pelvis_tilt/speed	/jointset/ground_pelvis/pelvis_tx/speed	/jointset/ground_pelvis/pelvis_ty/speed	/jointset/hip_r/hip_flexion_r/speed	/jointset/hip_r/hip_adduction_r/speed	/jointset/hip_r/hip_rotation_r/speed	/jointset/back/lumbar_extension/speed	/jointset/patellofemoral_r/patellar_flexion_r/speed	/jointset/knee_r/knee_flexion_r/speed	/jointset/knee_r/knee_adduction_r/speed	/jointset/knee_r/knee_rotation_r/speed	/jointset/ankle_r/ankle_angle_r/speed	/jointset/subtalar_r/subtalar_angle_r/speed	/forceset/tau_hip_flexion_r	/forceset/tau_hip_adduction_r	/forceset/tau_hip_rotation_r	/forceset/tau_knee_flexion_r	/forceset/tau_ankle_angle_r	/forceset/tau_subtalar_angle_r	/forceset/tau_lumbar_extension	lambda_cid13_p0	lambda_cid14_p0	lambda_cid14_p1	lambda_cid14_p2	lambda_cid14_p3	lambda_cid14_p4	lambda_cid14_p5	/jointset/ground_pelvis/pelvis_tilt/accel	/jointset/ground_pelvis/pelvis_tx/accel	/jointset/ground_pelvis/pelvis_ty/accel	/jointset/hip_r/hip_flexion_r/accel	/jointset/hip_r/hip_adduction_r/accel	/jointset/hip_r/hip_rotation_r/accel	/jointset/back/lumbar_extension/accel	/jointset/patellofemoral_r/patellar_flexion_r/accel	/jointset/knee_r/knee_flexion_r/accel	/jointset/knee_r/knee_adduction_r/accel	/jointset/knee_r/knee_rotation_r/accel	/jointset/ankle_r/ankle_angle_r/accel	/jointset/subtalar_r/subtalar_angle_r/accel	gamma_cid13_p0	gamma_cid14_p0	gamma_cid14_p1	gamma_cid14_p2	gamma_cid14_p3	gamma_cid14_p4	gamma_cid14_p5
1	-0.1704973090433766	0.01961639316962066	0.7103600298221175	1.164478416058299	-0.228967571791001	-0.1361089116737484	-0.7853632000531571	1.311613842629866	1.311613842629876	-0.173948916225504	0.1717992275654512	0.4362558771888932	0.1946180994896337	0.07101307337395572	0.008527775706747226	0.01568806708428503	-0.1074872553351528	-0.002269304184377412	0.006781760875607498	0.00523328656240725	-0.02040586673697819	-0.02040586673697865	0.01615536123078244	-0.001245757912698212	0.01421284455530408	0.003315748486126987	-0.291175537029698	0.05597839828173526	0.01501939629438858	-0.3975094504905953	-0.06145542350997506	0.001289670483906089	0.331777076640091	-0.04356413927490777	-70.66140987997572	-15.91493994386852	7.645529415794188	8.610460446525892	-748.7654402111797	53.54713409396395	1.04805942569404	0.1540165791181868	1.416550572383913	-4.349706745509212	0.1743601102281849	0.02517311249329032	0.3398092629737631	-4.394876322304492	-4.394876322304673	1.294915423253217	0.1282312597877694	-1.33493529585976	-0.4007171354996384	-2.998583054698738e-10	-5.034234122492898e-10	2.194908672098756e-08	9.765182312800367e-09	-2.855939604451758e-10	-3.102542600225137e-09	2.922710309399706e-08
1.01	-0.1697350272623391	0.01970969442994892	0.7105875249173536	1.163186394785249	-0.2289820030178014	-0.1360379408479518	-0.7852913757234073	1.311191149944672	1.311191149944671	-0.1737204013015769	0.1717932597627836	0.4363319742413855	0.1946306980118103	0.08148129251332555	0.01016747769920581	0.02980305519764611	-0.1509744062429552	-0.0006353359880375736	0.007391447945546747	0.009308917526882976	-0.06407690817545918	-0.06407690817546056	0.02953298017854172	6.890443934411952e-05	0.001085065855921918	-0.0007873165168581794	-0.292482757243601	0.0560353003919328	0.01496325588862942	-0.3966276208330755	-0.0623788964460212	0.001390429356204348	0.3332748329223002	-0.043533703153416	-70.96024658134694	-15.89084934274922	7.604388866982558	8.348712638072673	-749.2497299735246	53.50934629955309	1.051906050071466	0.1741969972029428	1.407787357204109	-4.356828950192998	0.155163578637614	0.0757265697332212	0.4680407340253069	-4.344854239842318	-4.344854239842253	1.356990165821806	0.1356022927933765	-1.289925196299421	-0.4137798723229651	2.492753152799751e-09	4.098208296128714e-09	4.003361957277762e-08	4.879193365564796e-08	-1.058402320719541e-09	-5.272201890292752e-09	5.937057214726288e-08
1.02	-0.1688669227115115	0.01982044270778075	0.7109559327790018	1.161457780065754	-0.2289806448817687	-0.135961501138395	-0.7851734749398442	1.310333419608048	1.310333419608055	-0.1733585491810974	0.1718009422975861	0.4362791482990961	0.1946025301460333	0.09217762733322281	0.0120171792074637	0.04387062036663999	-0.1948059446218366	0.0008885683803525893	0.007875537635042774	0.01444857732498626	-0.1074133970228394	-0.1074133970228408	0.04282280053768659	0.001484309586626533	-0.01157175441634282	-0.004837529104848548	-0.2937899774575538	0.05609220250205574	0.01490711548290126	-0.3957457911755551	-0.06330236938208422	0.001491188228352094	0.3347725892044631	-0.04350658033635848	-71.26666606312183	-15.86004393120757	7.552990917238997	8.084065749295071	-749.881060943827	53.52222688824776	1.093682561799494	0.1960164822780823	1.407065983510481	-4.41858423972506	0.1523473446382413	5.363640463902457e-05	0.5526150296992579	-4.327965804084344	-4.327965804084347	1.277355705530339	0.1483798188357914	-1.240743610436225	-0.3901466525006677	5.624544092754451e-09	8.935896727054924e-09	5.265775700090066e-08	7.668141106833868e-08	-4.180537414161337e-09	-9.501132645228278e-09	8.822057752937272e-08
1.03	-0.1678917232791767	0.01995051474689089	0.7114647143514536	1.159290377291596	-0.2289644261714406	-0.1358807439144321	-0.7849988533437998	1.309043559409264	1.309043559409262	-0.1728642342062888	0.1718230137785771	0.4361014019010511	0.1945340730882767	0.1027993342705412	0.01401014871405178	0.05787120766807113	-0.2386069478426112	0.00235287223323932	0.008271564359989391	0.02065441050481651	-0.1505451609953672	-0.1505451609953673	0.05603336689295747	0.002920141964221854	-0.023969422686395	-0.008852353620292814	-0.2940498611575372	0.05610773936501749	0.01495844430184569	-0.395181201916204	-0.06380294159529735	0.001496052522337197	0.3353193150505356	-0.04351102865395142	-71.43029946942512	-15.8607443195413	7.523589491009507	8.053517498594491	-750.0655987725526	53.50988693361105	1.036979041368339	0.2028737155362974	1.394379359149408	-4.350706148291962	0.1431416430556279	0.05873581296186831	0.6813677552471549	-4.30376120400325	-4.303761204003026	1.341883337912968	0.1397339388816638	-1.238063408298101	-0.4068982991322617	8.759796047828389e-09	1.377599390004795e-08	6.5226176108374e-08	1.044572428286808e-07	-7.326645229370161e-09	-1.375107637429512e-08	1.170573843025932e-07
1.04	-0.1668121939211336	0.02010090378720452	0.7121130666480581	1.156686994928211	-0.2289336304750869	-0.135796154698769	-0.7847568133573338	1.307322785668722	1.307322785668726	-0.1722380183204328	0.1718591533816521	0.4357999218257095	0.1944255181957535	0.1130436124746669	0.01608057944816496	0.07178476519707985	-0.2820018624649161	0.003803965583813118	0.00864193598182207	0.0279322554095313	-0.1935961053745439	-0.1935961053745427	0.06920298274373173	0.004297934008232046	-0.03631848987678211	-0.01285709605837925	-0.2943097448575939	0.05612327622790982	0.01500977312079775	-0.3946166126568546	-0.06430351380852066	0.001500916816185821	0.335866040896542	-0.04351835296534309	-71.60145022005352	-15.8549232429649	7.484195417109873	8.016964852399585	-750.3975513254787	53.54691525599891	1.01819681516088	0.2115087277831597	1.389660029026003	-4.33736652003117	0.1497052441756366	-0.005077384218159333	0.7670173746761605	-4.311801885414117	-4.311801885414113	1.269165604631023	0.136771752118779	-1.231023394503119	-0.388130237029085	1.157257737867668e-08	1.826627104846815e-08	7.984962610356116e-08	1.351570744802639e-07	-9.55056451426181e-09	-1.708839822224479e-08	1.449032755952542e-07
1.05	-0.1656321669396359	0.02027236727666035	0.712900076618198	1.153651832015375	-0.2288883434136955	-0.1357082266123551	-0.7844367540053129	1.305171868747686	1.305171868747682	-0.1714806139991678	0.1719087119912465	0.4353751090800187	0.1942770262370547	0.1228893869619209	0.01822328482992109	0.08559800793869056	-0.3249449772212342	0.005255129208761341	0.008923603019123054	0.03625084753412108	-0.2365764083645722	-0.2365764083645703	0.0822494375769063	0.005596586612996877	-0.04864505654799325	-0.01683559466061695	-0.2941747820645311	0.05609457358831661	0.01510550541911301	-0.39391691289378	-0.06460613883896815	0.00145941579058215	0.3360737295184082	-0.0435317705604322	-71.68969724967685	-15.85765964736245	7.449520655132989	7.988492273749365	-750.3591153494489	53.53182327626187	0.9569130169790178	0.2173240302552771	1.374269150040091	-4.259917952100499	0.1430981928478523	0.04179334517838747	0.889965012234719	-4.289516838969091	-4.289516838968964	1.318118886004263	0.123871962820772	-1.233622948067355	-0.4018198145640098	1.437528150251792e-08	2.274561632112046e-08	9.453729581398936e-08	1.659482811284483e-07	-1.174566540758105e-08	-2.039720063640955e-08	1.727182007791477e-07
1.06	-0.1643558531629682	0.02046559233731061	0.7138246415664169	1.150189811155246	-0.2288284894618069	-0.1356180809361024	-0.7840283717558686	1.302591474330117	1.302591474330108	-0.1705935984368845	0.1719707491165016	0.434827000738694	0.194088927263786	0.1323009715080249	0.02043289368705222	0.09929576081275311	-0.3673734519242824	0.006717343681460478	0.009085453955389757	0.04559683489407895	-0.279491604681475	-0.2794916046814723	0.09512523094382626	0.00679363714438329	-0.06097760900469369	-0.02077849897257401	-0.2940398192714687	0.05606587094866927	0.01520123771741797	-0.3932172131307045	-0.06490876386943061	0.001417914764868742	0.3362814181402746	-0.04354781211928616	-71.78558018338222	-15.85406436678526	7.40507656703081	7.953884374964286	-750.4694062414962	53.56524984895301	0.9313588269307916	0.2248894228582148	1.366562055516372	-4.234438509377245	0.151915413725801	-0.02904060442502703	0.9724964217497699	-4.298780550788986	-4.298780550789001	1.235033311380113	0.1164513374431133	-1.232220551600895	-0.3810113789729457	1.712997882237897e-08	2.583438682191561e-08	9.875401243984996e-08	1.939826744041706e-07	-1.201106738707724e-08	-2.304263782236763e-08	1.874818291677458e-07
1.07	-0.1629872778865653	0.0206812691371186	0.714885583353148	1.146305803863556	-0.2287537584497981	-0.1355269545975936	-0.7835217867005992	1.299582336452567	1.299582336452568	-0.1695791057710959	0.1720436979979457	0.4341556504401659	0.1938620293110367	0.1413699946635919	0.02271568336149074	0.1128706605075662	-0.4093659031600616	0.008249035532962011	0.009127283736458252	0.0558560862346995	-0.322315434761261	-0.3223154347612588	0.107715375403852	0.007724638655776709	-0.07328301476135507	-0.02455406140626095	-0.2936094580096846	0.05599387494763791	0.01532522990827812	-0.3922453381969132	-0.06508872122854342	0.001359746213370566	0.3362137939364313	-0.04356057945317626	-71.81432703519148	-15.84264827293495	7.35561160446605	7.892994752013058	-750.1633714625432	53.5591296176882	0.888066839777985	0.2319538658566168	1.349658355115383	-4.17232709764744	0.1568544560635688	0.01893861519350324	1.073026001412472	-4.271107841830649	-4.271107841830695	1.262314008233393	0.07075144658500168	-1.228284580485667	-0.3687316149609095	1.98821225888368e-08	2.884919057952685e-08	1.024137634761058e-07	2.218704286707193e-07	-1.21738258073275e-08	-2.565278962384661e-08	2.015512396417004e-07
1.08	-0.1615293338226218	0.02092016985889512	0.7160816150225581	1.142003736326125	-0.2286630988422271	-0.1354357811921207	-0.7829085318296836	1.296145575553168	1.296145575553171	-0.1684404498617095	0.1721238222722196	0.4333615292855139	0.1935987951460728	0.1501747290154881	0.02507767808075743	0.1263137373484463	-0.450985501074602	0.009903062792511448	0.009094867350358108	0.06693079802308582	-0.3650162090513351	-0.3650162090513334	0.1199578796606588	0.008228715711074433	-0.08553178022949222	-0.02804574141572285	-0.2931790967478621	0.05592187894660237	0.01544922209907311	-0.3912734632631275	-0.06526867858766228	0.001301577661862798	0.3361461697326227	-0.04357569998196967	-71.85097460579006	-15.8253562650396	7.296917462369868	7.826230330348809	-750.0078044176404	53.60000684172069	0.8785010661965791	0.2407304318239039	1.340197484729776	-4.159867845129511	0.1763824953353658	-0.04388983785876763	1.135588511302914	-4.274169392846609	-4.274169392846624	1.165505270736328	0.03106644622399698	-1.220892493895965	-0.3242348941279302	2.036049637616184e-08	3.080697852757053e-08	1.202333784291639e-07	2.329161188303794e-07	-1.417029938144954e-08	-2.827160115212224e-08	2.212424722950007e-07
1.09	-0.1599845208697938	0.02118309697998813	0.7174113744790811	1.137287267686561	-0.2285556157451701	-0.1353454128417128	-0.7821806877880271	1.292282513363826	1.292282513363828	-0.1671806947481187	0.1722075949182696	0.4324451305066623	0.1933014157844478	0.158755648621885	0.02752198961645654	0.1396115517847058	-0.4922504795572851	0.01157966857864579	0.008968561740232819	0.07875345379268404	-0.4075648472928808	-0.407564847292882	0.1319915423576749	0.0085273405375309	-0.09774641430734682	-0.03145063884878199	-0.2924121822101733	0.05574903407659865	0.01559961238209733	-0.3900579109161782	-0.06531228484159345	0.001212017562085075	0.3357696898074158	-0.04359491635016748	-71.81876798217237	-15.80963471623196	7.238466147744554	7.753146550843422	-749.434991451492	53.57887843016819	0.8430624527650493	0.2484147362774793	1.320576871522142	-4.101144109718568	0.1612519289819091	0.001485874894649949	1.222920632416939	-4.240507949902474	-4.240507949902873	1.222058228700794	0.029547662358758	-1.221514986139794	-0.3516425195713071	2.066586592594417e-08	3.268434135966885e-08	1.391303743324134e-07	2.426803475906023e-07	-1.630629476075748e-08	-3.089107157265413e-08	2.413614522880338e-07
